<?xml version="1.0" encoding="iso-8859-1"?>
<!-- Generator: Adobe Illustrator 19.0.0, SVG Export Plug-In . SVG Version: 6.00 Build 0)  -->
<svg version="1.1" id="Layer_1" xmlns="http://www.w3.org/2000/svg" xmlns:xlink="http://www.w3.org/1999/xlink" x="0px" y="0px"
	 viewBox="0 0 512.001 512.001" style="enable-background:new 0 0 512.001 512.001;" xml:space="preserve">
<g>
	<g>
		<path d="M494.877,200.742c-22.831-22.831-59.847-22.831-82.678,0l-29.528,29.528l-29.529-29.529
			c-22.831-22.831-59.847-22.831-82.678,0s-22.831,59.847,0,82.678l112.208,112.208l112.208-112.208
			C517.708,260.589,517.708,223.573,494.877,200.742z"/>
	</g>
</g>
<g>
	<g>
		<path d="M144.765,31.614v328.364c-14.924-6.412-32.461-9.88-50.668-9.88c-23.213,0-45.358,5.617-62.355,15.816
			C11.57,378.016,0,395.997,0,415.242s11.57,37.226,31.743,49.329c16.997,10.199,39.142,15.816,62.355,15.816
			c23.213,0,45.358-5.617,62.355-15.816c20.173-12.102,31.743-30.084,31.743-49.329V75.044h94.097v-43.43H144.765z"/>
	</g>
</g>
<g>
</g>
<g>
</g>
<g>
</g>
<g>
</g>
<g>
</g>
<g>
</g>
<g>
</g>
<g>
</g>
<g>
</g>
<g>
</g>
<g>
</g>
<g>
</g>
<g>
</g>
<g>
</g>
<g>
</g>
</svg>
